<svg width="30" height="30" viewBox="0 0 30 30" fill="none" xmlns="http://www.w3.org/2000/svg">
<path fill-rule="evenodd" clip-rule="evenodd" d="M15.0324 2.5C8.14619 2.5 2.56494 8.08125 2.56494 14.9675C2.56494 20.475 6.13619 25.1487 11.0912 26.7987C11.7149 26.9112 11.9399 26.5275 11.9399 26.1975C11.9399 25.9013 11.9299 25.1162 11.9262 24.0775C8.45744 24.83 7.72494 22.405 7.72494 22.405C7.15994 20.965 6.34119 20.5813 6.34119 20.5813C5.20994 19.8075 6.42744 19.825 6.42744 19.825C7.67994 19.9125 8.33619 21.11 8.33619 21.11C9.44869 23.015 11.2562 22.465 11.9637 22.1462C12.0774 21.34 12.4024 20.79 12.7574 20.4787C9.98994 20.165 7.07994 19.095 7.07994 14.3163C7.07994 12.9575 7.56619 11.8425 8.35994 10.9725C8.23369 10.6562 7.80244 9.3875 8.48369 7.6725C8.48369 7.6725 9.52994 7.33625 11.9112 8.94875C12.9282 8.67209 13.9772 8.53087 15.0312 8.52875C16.0852 8.53046 17.1343 8.67169 18.1512 8.94875C20.5337 7.335 21.5787 7.6725 21.5787 7.6725C22.2599 9.3875 21.8324 10.6562 21.7024 10.9725C22.5024 11.8425 22.9824 12.9563 22.9824 14.3163C22.9824 19.1075 20.0699 20.16 17.2924 20.4688C17.7362 20.8537 18.1362 21.6138 18.1362 22.7763C18.1362 24.4438 18.1212 25.7888 18.1212 26.1975C18.1212 26.5313 18.3437 26.9188 18.9799 26.7963C23.9324 25.1438 27.4999 20.4738 27.4999 14.9675C27.4999 8.08125 21.9187 2.5 15.0324 2.5Z" fill="#FFFFF7"/>
</svg>
