<svg width="30" height="30" viewBox="0 0 30 30" fill="none" xmlns="http://www.w3.org/2000/svg">
<path d="M25 3.75H5C4.66848 3.75 4.35054 3.8817 4.11612 4.11612C3.8817 4.35054 3.75 4.66848 3.75 5V25C3.75 25.3315 3.8817 25.6495 4.11612 25.8839C4.35054 26.1183 4.66848 26.25 5 26.25H25C25.3315 26.25 25.6495 26.1183 25.8839 25.8839C26.1183 25.6495 26.25 25.3315 26.25 25V5C26.25 4.66848 26.1183 4.35054 25.8839 4.11612C25.6495 3.8817 25.3315 3.75 25 3.75ZM10.4237 22.9212H7.08375V12.1837H10.4237V22.9212ZM8.75375 10.7175C8.24056 10.7175 7.74838 10.5136 7.3855 10.1508C7.02262 9.78787 6.81875 9.29569 6.81875 8.7825C6.81875 8.26931 7.02262 7.77713 7.3855 7.41425C7.74838 7.05137 8.24056 6.8475 8.75375 6.8475C9.26694 6.8475 9.75912 7.05137 10.122 7.41425C10.4849 7.77713 10.6887 8.26931 10.6887 8.7825C10.6887 9.29569 10.4849 9.78787 10.122 10.1508C9.75912 10.5136 9.26694 10.7175 8.75375 10.7175ZM22.9225 22.9212H19.5862V17.7C19.5862 16.455 19.5638 14.8538 17.8513 14.8538C16.1138 14.8538 15.85 16.2113 15.85 17.6125V22.9225H12.5162V12.185H15.7162V13.6525H15.7625C16.2062 12.8087 17.2962 11.9187 18.9175 11.9187C22.2975 11.9187 22.9212 14.1412 22.9212 17.0337L22.9225 22.9212Z" fill="#FFFFF7"/>
</svg>
